<mxfile host="app.diagrams.net" agent="Mozilla/5.0 (Windows NT 10.0; Win64; x64) AppleWebKit/537.36 (KHTML, like Gecko) Chrome/132.0.0.0 Safari/537.36" version="28.2.0">
  <diagram name="Page-1" id="m7DBBb_mCaCIAAtDGXFd">
    <mxGraphModel dx="786" dy="451" grid="1" gridSize="10" guides="1" tooltips="1" connect="1" arrows="1" fold="1" page="1" pageScale="1" pageWidth="827" pageHeight="1169" math="0" shadow="0">
      <root>
        <mxCell id="0" />
        <mxCell id="1" parent="0" />
        <mxCell id="PTOjxTS-mJ5EU271UVOq-1" value="Start" style="strokeWidth=2;html=1;shape=mxgraph.flowchart.start_1;whiteSpace=wrap;" vertex="1" parent="1">
          <mxGeometry x="260" y="10" width="100" height="60" as="geometry" />
        </mxCell>
        <mxCell id="PTOjxTS-mJ5EU271UVOq-2" value="Initialize room state, attendance, tempurate&amp;nbsp;" style="rounded=1;whiteSpace=wrap;html=1;absoluteArcSize=1;arcSize=14;strokeWidth=2;" vertex="1" parent="1">
          <mxGeometry x="190" y="90" width="240" height="70" as="geometry" />
        </mxCell>
        <mxCell id="PTOjxTS-mJ5EU271UVOq-3" value="Display menu" style="shape=parallelogram;html=1;strokeWidth=2;perimeter=parallelogramPerimeter;whiteSpace=wrap;rounded=1;arcSize=12;size=0.23;" vertex="1" parent="1">
          <mxGeometry x="220" y="180" width="130" height="80" as="geometry" />
        </mxCell>
        <mxCell id="PTOjxTS-mJ5EU271UVOq-4" value="Choice&amp;nbsp;" style="strokeWidth=2;html=1;shape=mxgraph.flowchart.decision;whiteSpace=wrap;" vertex="1" parent="1">
          <mxGeometry x="225" y="280" width="100" height="100" as="geometry" />
        </mxCell>
        <mxCell id="PTOjxTS-mJ5EU271UVOq-5" value="Set topic" style="rounded=1;whiteSpace=wrap;html=1;absoluteArcSize=1;arcSize=14;strokeWidth=2;" vertex="1" parent="1">
          <mxGeometry x="40" y="300" width="110" height="60" as="geometry" />
        </mxCell>
        <mxCell id="PTOjxTS-mJ5EU271UVOq-6" value="Add student&amp;nbsp;" style="rounded=1;whiteSpace=wrap;html=1;absoluteArcSize=1;arcSize=14;strokeWidth=2;" vertex="1" parent="1">
          <mxGeometry x="40" y="380" width="110" height="60" as="geometry" />
        </mxCell>
        <mxCell id="PTOjxTS-mJ5EU271UVOq-7" value="Toggle projector&amp;nbsp;" style="rounded=1;whiteSpace=wrap;html=1;absoluteArcSize=1;arcSize=14;strokeWidth=2;" vertex="1" parent="1">
          <mxGeometry x="160" y="420" width="110" height="60" as="geometry" />
        </mxCell>
        <mxCell id="PTOjxTS-mJ5EU271UVOq-8" value="Calculate status (min, max, avg)" style="rounded=1;whiteSpace=wrap;html=1;absoluteArcSize=1;arcSize=14;strokeWidth=2;" vertex="1" parent="1">
          <mxGeometry x="300" y="420" width="110" height="60" as="geometry" />
        </mxCell>
        <mxCell id="PTOjxTS-mJ5EU271UVOq-9" value="Remove Student&amp;nbsp;" style="rounded=1;whiteSpace=wrap;html=1;absoluteArcSize=1;arcSize=14;strokeWidth=2;" vertex="1" parent="1">
          <mxGeometry x="430" y="420" width="110" height="60" as="geometry" />
        </mxCell>
        <mxCell id="PTOjxTS-mJ5EU271UVOq-10" value="Generate report" style="rounded=1;whiteSpace=wrap;html=1;absoluteArcSize=1;arcSize=14;strokeWidth=2;" vertex="1" parent="1">
          <mxGeometry x="570" y="430" width="110" height="60" as="geometry" />
        </mxCell>
        <mxCell id="PTOjxTS-mJ5EU271UVOq-11" value="Add temperature&amp;nbsp;" style="rounded=1;whiteSpace=wrap;html=1;absoluteArcSize=1;arcSize=14;strokeWidth=2;" vertex="1" parent="1">
          <mxGeometry x="500" y="290" width="110" height="60" as="geometry" />
        </mxCell>
        <mxCell id="PTOjxTS-mJ5EU271UVOq-12" value="Exit&amp;nbsp;" style="rounded=1;whiteSpace=wrap;html=1;absoluteArcSize=1;arcSize=14;strokeWidth=2;" vertex="1" parent="1">
          <mxGeometry x="220" y="530" width="110" height="60" as="geometry" />
        </mxCell>
        <mxCell id="PTOjxTS-mJ5EU271UVOq-13" value="End" style="strokeWidth=2;html=1;shape=mxgraph.flowchart.start_1;whiteSpace=wrap;" vertex="1" parent="1">
          <mxGeometry x="225" y="620" width="100" height="60" as="geometry" />
        </mxCell>
        <mxCell id="PTOjxTS-mJ5EU271UVOq-14" value="" style="endArrow=classic;html=1;rounded=0;exitX=0.5;exitY=1;exitDx=0;exitDy=0;exitPerimeter=0;entryX=0.5;entryY=0;entryDx=0;entryDy=0;" edge="1" parent="1" source="PTOjxTS-mJ5EU271UVOq-1" target="PTOjxTS-mJ5EU271UVOq-2">
          <mxGeometry width="50" height="50" relative="1" as="geometry">
            <mxPoint x="380" y="300" as="sourcePoint" />
            <mxPoint x="430" y="250" as="targetPoint" />
          </mxGeometry>
        </mxCell>
        <mxCell id="PTOjxTS-mJ5EU271UVOq-15" value="" style="endArrow=classic;html=1;rounded=0;exitX=0.5;exitY=1;exitDx=0;exitDy=0;entryX=0.646;entryY=0.008;entryDx=0;entryDy=0;entryPerimeter=0;" edge="1" parent="1" source="PTOjxTS-mJ5EU271UVOq-2" target="PTOjxTS-mJ5EU271UVOq-3">
          <mxGeometry width="50" height="50" relative="1" as="geometry">
            <mxPoint x="380" y="300" as="sourcePoint" />
            <mxPoint x="430" y="250" as="targetPoint" />
          </mxGeometry>
        </mxCell>
        <mxCell id="PTOjxTS-mJ5EU271UVOq-16" value="" style="endArrow=classic;html=1;rounded=0;exitX=0.441;exitY=1.025;exitDx=0;exitDy=0;exitPerimeter=0;entryX=0.5;entryY=0;entryDx=0;entryDy=0;entryPerimeter=0;" edge="1" parent="1" source="PTOjxTS-mJ5EU271UVOq-3" target="PTOjxTS-mJ5EU271UVOq-4">
          <mxGeometry width="50" height="50" relative="1" as="geometry">
            <mxPoint x="380" y="300" as="sourcePoint" />
            <mxPoint x="430" y="250" as="targetPoint" />
          </mxGeometry>
        </mxCell>
        <mxCell id="PTOjxTS-mJ5EU271UVOq-17" value="" style="endArrow=classic;html=1;rounded=0;exitX=1;exitY=0.5;exitDx=0;exitDy=0;exitPerimeter=0;entryX=0;entryY=0.644;entryDx=0;entryDy=0;entryPerimeter=0;" edge="1" parent="1" source="PTOjxTS-mJ5EU271UVOq-4" target="PTOjxTS-mJ5EU271UVOq-11">
          <mxGeometry width="50" height="50" relative="1" as="geometry">
            <mxPoint x="380" y="300" as="sourcePoint" />
            <mxPoint x="430" y="250" as="targetPoint" />
          </mxGeometry>
        </mxCell>
        <mxCell id="PTOjxTS-mJ5EU271UVOq-18" value="" style="endArrow=classic;html=1;rounded=0;exitX=0.5;exitY=1;exitDx=0;exitDy=0;exitPerimeter=0;entryX=0.25;entryY=0;entryDx=0;entryDy=0;" edge="1" parent="1" source="PTOjxTS-mJ5EU271UVOq-4" target="PTOjxTS-mJ5EU271UVOq-10">
          <mxGeometry width="50" height="50" relative="1" as="geometry">
            <mxPoint x="380" y="300" as="sourcePoint" />
            <mxPoint x="430" y="250" as="targetPoint" />
            <Array as="points">
              <mxPoint x="600" y="380" />
            </Array>
          </mxGeometry>
        </mxCell>
        <mxCell id="PTOjxTS-mJ5EU271UVOq-19" value="" style="endArrow=classic;html=1;rounded=0;exitX=0.817;exitY=0.713;exitDx=0;exitDy=0;exitPerimeter=0;entryX=0.5;entryY=0;entryDx=0;entryDy=0;" edge="1" parent="1" source="PTOjxTS-mJ5EU271UVOq-4" target="PTOjxTS-mJ5EU271UVOq-9">
          <mxGeometry width="50" height="50" relative="1" as="geometry">
            <mxPoint x="380" y="300" as="sourcePoint" />
            <mxPoint x="430" y="250" as="targetPoint" />
            <Array as="points">
              <mxPoint x="485" y="351" />
            </Array>
          </mxGeometry>
        </mxCell>
        <mxCell id="PTOjxTS-mJ5EU271UVOq-20" value="" style="endArrow=classic;html=1;rounded=0;exitX=0.65;exitY=0.8;exitDx=0;exitDy=0;exitPerimeter=0;entryX=0.564;entryY=0;entryDx=0;entryDy=0;entryPerimeter=0;" edge="1" parent="1" source="PTOjxTS-mJ5EU271UVOq-4" target="PTOjxTS-mJ5EU271UVOq-8">
          <mxGeometry width="50" height="50" relative="1" as="geometry">
            <mxPoint x="380" y="300" as="sourcePoint" />
            <mxPoint x="430" y="250" as="targetPoint" />
            <Array as="points">
              <mxPoint x="360" y="360" />
            </Array>
          </mxGeometry>
        </mxCell>
        <mxCell id="PTOjxTS-mJ5EU271UVOq-21" value="" style="endArrow=classic;html=1;rounded=0;exitX=0.39;exitY=0.88;exitDx=0;exitDy=0;exitPerimeter=0;entryX=0.75;entryY=0;entryDx=0;entryDy=0;" edge="1" parent="1" source="PTOjxTS-mJ5EU271UVOq-4" target="PTOjxTS-mJ5EU271UVOq-7">
          <mxGeometry width="50" height="50" relative="1" as="geometry">
            <mxPoint x="380" y="300" as="sourcePoint" />
            <mxPoint x="430" y="250" as="targetPoint" />
          </mxGeometry>
        </mxCell>
        <mxCell id="PTOjxTS-mJ5EU271UVOq-22" value="" style="endArrow=classic;html=1;rounded=0;entryX=1;entryY=0.5;entryDx=0;entryDy=0;" edge="1" parent="1" target="PTOjxTS-mJ5EU271UVOq-6">
          <mxGeometry width="50" height="50" relative="1" as="geometry">
            <mxPoint x="230" y="340" as="sourcePoint" />
            <mxPoint x="430" y="250" as="targetPoint" />
          </mxGeometry>
        </mxCell>
        <mxCell id="PTOjxTS-mJ5EU271UVOq-23" value="" style="endArrow=classic;html=1;rounded=0;exitX=0;exitY=0.5;exitDx=0;exitDy=0;exitPerimeter=0;entryX=1;entryY=0.5;entryDx=0;entryDy=0;" edge="1" parent="1" source="PTOjxTS-mJ5EU271UVOq-4" target="PTOjxTS-mJ5EU271UVOq-5">
          <mxGeometry width="50" height="50" relative="1" as="geometry">
            <mxPoint x="380" y="300" as="sourcePoint" />
            <mxPoint x="430" y="250" as="targetPoint" />
          </mxGeometry>
        </mxCell>
        <mxCell id="PTOjxTS-mJ5EU271UVOq-24" value="" style="endArrow=classic;html=1;rounded=0;exitX=0.5;exitY=1;exitDx=0;exitDy=0;exitPerimeter=0;entryX=0.5;entryY=0;entryDx=0;entryDy=0;" edge="1" parent="1" source="PTOjxTS-mJ5EU271UVOq-4" target="PTOjxTS-mJ5EU271UVOq-12">
          <mxGeometry width="50" height="50" relative="1" as="geometry">
            <mxPoint x="380" y="500" as="sourcePoint" />
            <mxPoint x="430" y="450" as="targetPoint" />
          </mxGeometry>
        </mxCell>
        <mxCell id="PTOjxTS-mJ5EU271UVOq-26" value="" style="endArrow=classic;html=1;rounded=0;exitX=0.5;exitY=1;exitDx=0;exitDy=0;entryX=0.5;entryY=0;entryDx=0;entryDy=0;entryPerimeter=0;" edge="1" parent="1" source="PTOjxTS-mJ5EU271UVOq-12" target="PTOjxTS-mJ5EU271UVOq-13">
          <mxGeometry width="50" height="50" relative="1" as="geometry">
            <mxPoint x="380" y="500" as="sourcePoint" />
            <mxPoint x="430" y="450" as="targetPoint" />
          </mxGeometry>
        </mxCell>
        <mxCell id="PTOjxTS-mJ5EU271UVOq-27" value="" style="endArrow=classic;html=1;rounded=0;exitX=0.5;exitY=0;exitDx=0;exitDy=0;" edge="1" parent="1" source="PTOjxTS-mJ5EU271UVOq-11" target="PTOjxTS-mJ5EU271UVOq-3">
          <mxGeometry width="50" height="50" relative="1" as="geometry">
            <mxPoint x="380" y="400" as="sourcePoint" />
            <mxPoint x="430" y="350" as="targetPoint" />
            <Array as="points">
              <mxPoint x="555" y="220" />
            </Array>
          </mxGeometry>
        </mxCell>
        <mxCell id="PTOjxTS-mJ5EU271UVOq-28" value="" style="endArrow=classic;html=1;rounded=0;exitX=0.75;exitY=0;exitDx=0;exitDy=0;entryX=1;entryY=0.75;entryDx=0;entryDy=0;" edge="1" parent="1" source="PTOjxTS-mJ5EU271UVOq-10" target="PTOjxTS-mJ5EU271UVOq-3">
          <mxGeometry width="50" height="50" relative="1" as="geometry">
            <mxPoint x="380" y="400" as="sourcePoint" />
            <mxPoint x="430" y="350" as="targetPoint" />
            <Array as="points">
              <mxPoint x="653" y="230" />
            </Array>
          </mxGeometry>
        </mxCell>
        <mxCell id="PTOjxTS-mJ5EU271UVOq-30" value="" style="endArrow=classic;html=1;rounded=0;exitX=0.25;exitY=0;exitDx=0;exitDy=0;entryX=1;entryY=0.25;entryDx=0;entryDy=0;" edge="1" parent="1" source="PTOjxTS-mJ5EU271UVOq-9" target="PTOjxTS-mJ5EU271UVOq-3">
          <mxGeometry width="50" height="50" relative="1" as="geometry">
            <mxPoint x="380" y="400" as="sourcePoint" />
            <mxPoint x="430" y="350" as="targetPoint" />
            <Array as="points">
              <mxPoint x="458" y="203" />
            </Array>
          </mxGeometry>
        </mxCell>
        <mxCell id="PTOjxTS-mJ5EU271UVOq-31" value="" style="endArrow=classic;html=1;rounded=0;entryX=1;entryY=1;entryDx=0;entryDy=0;exitX=0.75;exitY=0;exitDx=0;exitDy=0;" edge="1" parent="1" source="PTOjxTS-mJ5EU271UVOq-8" target="PTOjxTS-mJ5EU271UVOq-3">
          <mxGeometry width="50" height="50" relative="1" as="geometry">
            <mxPoint x="380" y="410" as="sourcePoint" />
            <mxPoint x="430" y="350" as="targetPoint" />
            <Array as="points">
              <mxPoint x="380" y="245" />
            </Array>
          </mxGeometry>
        </mxCell>
        <mxCell id="PTOjxTS-mJ5EU271UVOq-32" value="" style="endArrow=classic;html=1;rounded=0;entryX=0;entryY=0.25;entryDx=0;entryDy=0;exitX=0.43;exitY=0.011;exitDx=0;exitDy=0;exitPerimeter=0;" edge="1" parent="1" source="PTOjxTS-mJ5EU271UVOq-5" target="PTOjxTS-mJ5EU271UVOq-3">
          <mxGeometry width="50" height="50" relative="1" as="geometry">
            <mxPoint x="95" y="300" as="sourcePoint" />
            <mxPoint x="430" y="350" as="targetPoint" />
            <Array as="points">
              <mxPoint x="90" y="206" />
            </Array>
          </mxGeometry>
        </mxCell>
        <mxCell id="PTOjxTS-mJ5EU271UVOq-33" value="" style="endArrow=classic;html=1;rounded=0;exitX=0.25;exitY=0;exitDx=0;exitDy=0;entryX=0;entryY=0.75;entryDx=0;entryDy=0;" edge="1" parent="1" source="PTOjxTS-mJ5EU271UVOq-7" target="PTOjxTS-mJ5EU271UVOq-3">
          <mxGeometry width="50" height="50" relative="1" as="geometry">
            <mxPoint x="380" y="400" as="sourcePoint" />
            <mxPoint x="430" y="350" as="targetPoint" />
            <Array as="points">
              <mxPoint x="190" y="237" />
            </Array>
          </mxGeometry>
        </mxCell>
        <mxCell id="PTOjxTS-mJ5EU271UVOq-34" value="" style="endArrow=classic;html=1;rounded=0;exitX=1;exitY=0;exitDx=0;exitDy=0;entryX=0.118;entryY=1.033;entryDx=0;entryDy=0;entryPerimeter=0;" edge="1" parent="1" source="PTOjxTS-mJ5EU271UVOq-6" target="PTOjxTS-mJ5EU271UVOq-3">
          <mxGeometry width="50" height="50" relative="1" as="geometry">
            <mxPoint x="380" y="400" as="sourcePoint" />
            <mxPoint x="430" y="350" as="targetPoint" />
          </mxGeometry>
        </mxCell>
      </root>
    </mxGraphModel>
  </diagram>
</mxfile>
